<?xml version="1.0"?>
<!-- Generated by SVGo and Plotinum VG -->
<svg width="720pt" height="216pt" viewBox="0 0 720 216"
	xmlns="http://www.w3.org/2000/svg"
	xmlns:xlink="http://www.w3.org/1999/xlink">
<g transform="scale(1, -1) translate(0, -216)">
<path d="M0,0L720,0L720,216L0,216Z" style="fill:#FFFFFF" />
<text x="296.19" y="-204.45" transform="scale(1, -1)"
	style="font-family:Times;font-weight:normal;font-style:normal;font-size:12px">Build worker load average</text>
<text x="360.67" y="-3.8613" transform="scale(1, -1)"
	style="font-family:Times;font-weight:normal;font-style:normal;font-size:12px">Time</text>
<text x="49.345" y="-15.602" transform="scale(1, -1)"
	style="font-family:Times;font-weight:normal;font-style:normal;font-size:10px">Oct 3 18:33:20</text>
<text x="338.41" y="-15.602" transform="scale(1, -1)"
	style="font-family:Times;font-weight:normal;font-style:normal;font-size:10px">Oct 9 13:26:40</text>
<text x="624.97" y="-15.602" transform="scale(1, -1)"
	style="font-family:Times;font-weight:normal;font-style:normal;font-size:10px">Oct 15 08:20:00</text>
<path d="M79.342,25.23L79.342,33.23" style="fill:none;stroke:#000000;stroke-width:0.5" />
<path d="M368.4,25.23L368.4,33.23" style="fill:none;stroke:#000000;stroke-width:0.5" />
<path d="M657.47,25.23L657.47,33.23" style="fill:none;stroke:#000000;stroke-width:0.5" />
<path d="M137.15,29.23L137.15,33.23" style="fill:none;stroke:#000000;stroke-width:0.5" />
<path d="M194.97,29.23L194.97,33.23" style="fill:none;stroke:#000000;stroke-width:0.5" />
<path d="M252.78,29.23L252.78,33.23" style="fill:none;stroke:#000000;stroke-width:0.5" />
<path d="M310.59,29.23L310.59,33.23" style="fill:none;stroke:#000000;stroke-width:0.5" />
<path d="M426.22,29.23L426.22,33.23" style="fill:none;stroke:#000000;stroke-width:0.5" />
<path d="M484.03,29.23L484.03,33.23" style="fill:none;stroke:#000000;stroke-width:0.5" />
<path d="M541.84,29.23L541.84,33.23" style="fill:none;stroke:#000000;stroke-width:0.5" />
<path d="M599.65,29.23L599.65,33.23" style="fill:none;stroke:#000000;stroke-width:0.5" />
<path d="M715.28,29.23L715.28,33.23" style="fill:none;stroke:#000000;stroke-width:0.5" />
<path d="M26.25,33.23L720,33.23" style="fill:none;stroke:#000000;stroke-width:0.5" />
<text x="0" y="-58.897" transform="scale(1, -1)"
	style="font-family:Times;font-weight:normal;font-style:normal;font-size:10px">10</text>
<text x="0" y="-84.261" transform="scale(1, -1)"
	style="font-family:Times;font-weight:normal;font-style:normal;font-size:10px">20</text>
<text x="0" y="-109.62" transform="scale(1, -1)"
	style="font-family:Times;font-weight:normal;font-style:normal;font-size:10px">30</text>
<text x="0" y="-134.99" transform="scale(1, -1)"
	style="font-family:Times;font-weight:normal;font-style:normal;font-size:10px">40</text>
<text x="0" y="-160.35" transform="scale(1, -1)"
	style="font-family:Times;font-weight:normal;font-style:normal;font-size:10px">50</text>
<text x="0" y="-185.72" transform="scale(1, -1)"
	style="font-family:Times;font-weight:normal;font-style:normal;font-size:10px">60</text>
<path d="M12.5,63.618L20.5,63.618" style="fill:none;stroke:#000000;stroke-width:0.5" />
<path d="M12.5,88.982L20.5,88.982" style="fill:none;stroke:#000000;stroke-width:0.5" />
<path d="M12.5,114.35L20.5,114.35" style="fill:none;stroke:#000000;stroke-width:0.5" />
<path d="M12.5,139.71L20.5,139.71" style="fill:none;stroke:#000000;stroke-width:0.5" />
<path d="M12.5,165.07L20.5,165.07" style="fill:none;stroke:#000000;stroke-width:0.5" />
<path d="M12.5,190.44L20.5,190.44" style="fill:none;stroke:#000000;stroke-width:0.5" />
<path d="M16.5,43.327L20.5,43.327" style="fill:none;stroke:#000000;stroke-width:0.5" />
<path d="M16.5,48.4L20.5,48.4" style="fill:none;stroke:#000000;stroke-width:0.5" />
<path d="M16.5,53.473L20.5,53.473" style="fill:none;stroke:#000000;stroke-width:0.5" />
<path d="M16.5,58.546L20.5,58.546" style="fill:none;stroke:#000000;stroke-width:0.5" />
<path d="M16.5,68.691L20.5,68.691" style="fill:none;stroke:#000000;stroke-width:0.5" />
<path d="M16.5,73.764L20.5,73.764" style="fill:none;stroke:#000000;stroke-width:0.5" />
<path d="M16.5,78.837L20.5,78.837" style="fill:none;stroke:#000000;stroke-width:0.5" />
<path d="M16.5,83.91L20.5,83.91" style="fill:none;stroke:#000000;stroke-width:0.5" />
<path d="M16.5,94.055L20.5,94.055" style="fill:none;stroke:#000000;stroke-width:0.5" />
<path d="M16.5,99.128L20.5,99.128" style="fill:none;stroke:#000000;stroke-width:0.5" />
<path d="M16.5,104.2L20.5,104.2" style="fill:none;stroke:#000000;stroke-width:0.5" />
<path d="M16.5,109.27L20.5,109.27" style="fill:none;stroke:#000000;stroke-width:0.5" />
<path d="M16.5,119.42L20.5,119.42" style="fill:none;stroke:#000000;stroke-width:0.5" />
<path d="M16.5,124.49L20.5,124.49" style="fill:none;stroke:#000000;stroke-width:0.5" />
<path d="M16.5,129.56L20.5,129.56" style="fill:none;stroke:#000000;stroke-width:0.5" />
<path d="M16.5,134.64L20.5,134.64" style="fill:none;stroke:#000000;stroke-width:0.5" />
<path d="M16.5,144.78L20.5,144.78" style="fill:none;stroke:#000000;stroke-width:0.5" />
<path d="M16.5,149.86L20.5,149.86" style="fill:none;stroke:#000000;stroke-width:0.5" />
<path d="M16.5,154.93L20.5,154.93" style="fill:none;stroke:#000000;stroke-width:0.5" />
<path d="M16.5,160L20.5,160" style="fill:none;stroke:#000000;stroke-width:0.5" />
<path d="M16.5,170.15L20.5,170.15" style="fill:none;stroke:#000000;stroke-width:0.5" />
<path d="M16.5,175.22L20.5,175.22" style="fill:none;stroke:#000000;stroke-width:0.5" />
<path d="M16.5,180.29L20.5,180.29" style="fill:none;stroke:#000000;stroke-width:0.5" />
<path d="M16.5,185.37L20.5,185.37" style="fill:none;stroke:#000000;stroke-width:0.5" />
<path d="M16.5,195.51L20.5,195.51" style="fill:none;stroke:#000000;stroke-width:0.5" />
<path d="M16.5,200.58L20.5,200.58" style="fill:none;stroke:#000000;stroke-width:0.5" />
<path d="M20.5,38.48L20.5,200.58" style="fill:none;stroke:#000000;stroke-width:0.5" />
<path d="M26.25,38.48L26.25,69.086L32.031,59.404L37.812,51.652L43.594,40.382L49.375,50.846L55.156,40.724L60.938,40.957L66.719,62.549L72.5,71.122L78.281,51.82L84.062,54.445L89.844,59.025L95.625,42.181L101.41,44.571L107.19,42.831L112.97,48.167L118.75,47.383L124.53,49.012L130.31,52.638L136.09,51.62L141.88,51.315L147.66,50.35L153.44,41.441L159.22,62.717L165,54.498L170.78,57.834L176.56,62.65L182.34,46.664L188.12,45.234L193.91,55.424L199.69,57.978L205.47,43.827L211.25,42.469L217.03,55.084L222.81,70.944L228.59,48.322L234.38,62.136L240.16,42.23L245.94,39.455L251.72,38.918L257.5,43.643L263.28,50.996L269.06,59.584L274.84,50.122L280.62,53.786L286.41,51.715L292.19,41.246L297.97,52.583L303.75,48.726L309.53,62.59L315.31,45.138L321.09,60.22L326.88,44.923L332.66,51.215L338.44,51.409L344.22,72.565L350,40.834L355.78,52.073L361.56,48.173L367.34,43.744L373.12,47.613L378.91,52.669L384.69,48.765L390.47,48.414L396.25,42.002L402.03,82.697L407.81,42.934L413.59,48.688L419.38,46.286L425.16,47.939L430.94,48.999L436.72,56.757L442.5,50.971L448.28,45.444L454.06,41.107L459.84,45.564L465.62,45.605L471.41,44.1L477.19,46.982L482.97,55.815L488.75,46.698L494.53,50.138L500.31,39.55L506.09,38.612L511.87,58.472L517.66,44.262L523.44,51.204L529.22,42.759L535,48.775L540.78,43.364L546.56,47.83L552.34,52.268L558.12,49.685L563.91,52.253L569.69,62.825L575.47,43.911L581.25,46.358L587.03,58.338L592.81,45.506L598.59,69.402L604.38,46.098L610.16,60.598L615.94,50.164L621.72,53.514L627.5,43.055L633.28,56.694L639.06,70.407L644.84,44.907L650.62,44.96L656.41,69.481L662.19,86.376L667.97,62.466L673.75,55.441L679.53,42.333L685.31,47.058L691.09,55.727L696.88,42.002L702.66,78.77L708.44,61.025L714.22,48.229L720,42.712L720,38.48Z" style="fill:#7AC36A" />
<path d="M26.25,69.086L32.031,59.404L37.812,51.652L43.594,40.382L49.375,50.846L55.156,40.724L60.938,40.957L66.719,62.549L72.5,71.122L78.281,51.82L84.062,54.445L89.844,59.025L95.625,42.181L101.41,44.571L107.19,42.831L112.97,48.167L118.75,47.383L124.53,49.012L130.31,52.638L136.09,51.62L141.88,51.315L147.66,50.35L153.44,41.441L159.22,62.717L165,54.498L170.78,57.834L176.56,62.65L182.34,46.664L188.12,45.234L193.91,55.424L199.69,57.978L205.47,43.827L211.25,42.469L217.03,55.084L222.81,70.944L228.59,48.322L234.38,62.136L240.16,42.23L245.94,39.455L251.72,38.918L257.5,43.643L263.28,50.996L269.06,59.584L274.84,50.122L280.62,53.786L286.41,51.715L292.19,41.246L297.97,52.583L303.75,48.726L309.53,62.59L315.31,45.138L321.09,60.22L326.88,44.923L332.66,51.215L338.44,51.409L344.22,72.565L350,40.834L355.78,52.073L361.56,48.173L367.34,43.744L373.12,47.613L378.91,52.669L384.69,48.765L390.47,48.414L396.25,42.002L402.03,82.697L407.81,42.934L413.59,48.688L419.38,46.286L425.16,47.939L430.94,48.999L436.72,56.757L442.5,50.971L448.28,45.444L454.06,41.107L459.84,45.564L465.62,45.605L471.41,44.1L477.19,46.982L482.97,55.815L488.75,46.698L494.53,50.138L500.31,39.55L506.09,38.612L511.87,58.472L517.66,44.262L523.44,51.204L529.22,42.759L535,48.775L540.78,43.364L546.56,47.83L552.34,52.268L558.12,49.685L563.91,52.253L569.69,62.825L575.47,43.911L581.25,46.358L587.03,58.338L592.81,45.506L598.59,69.402L604.38,46.098L610.16,60.598L615.94,50.164L621.72,53.514L627.5,43.055L633.28,56.694L639.06,70.407L644.84,44.907L650.62,44.96L656.41,69.481L662.19,86.376L667.97,62.466L673.75,55.441L679.53,42.333L685.31,47.058L691.09,55.727L696.88,42.002L702.66,78.77L708.44,61.025L714.22,48.229L720,42.712" style="fill:none;stroke:#000000" />
<path d="M26.25,38.48L26.25,53.279L32.031,46.69L37.812,43.114L43.594,39.274L49.375,42.908L55.156,38.984L60.938,38.941L66.719,46.387L72.5,55.5L78.281,44.407L84.062,43.656L89.844,43.889L95.625,39.58L101.41,40.951L107.19,39.541L112.97,42.314L118.75,45.308L124.53,44.776L130.31,42.89L136.09,43.435L141.88,44.543L147.66,42.849L153.44,39.78L159.22,50.046L165,47.703L170.78,50.687L176.56,49.526L182.34,41.727L188.12,41.263L193.91,46.199L199.69,47.785L205.47,40.905L211.25,39.812L217.03,45.86L222.81,56.993L228.59,44.285L234.38,52.087L240.16,39.791L245.94,38.808L251.72,38.673L257.5,40.495L263.28,44.907L269.06,48.938L274.84,43.722L280.62,46.964L286.41,45.325L292.19,39.487L297.97,41.125L303.75,38.681L309.53,49.41L315.31,40.942L321.09,46.971L326.88,41.249L332.66,44.695L338.44,42.272L344.22,56.184L350,38.998L355.78,44.649L361.56,44.836L367.34,42.372L373.12,42.748L378.91,47.397L384.69,42.872L390.47,41.999L396.25,40.132L402.03,61.262L407.81,40.331L413.59,45.354L419.38,41.749L425.16,44.475L430.94,46.154L436.72,46.971L442.5,43.309L448.28,41.854L454.06,39.484L459.84,39.963L465.62,42.522L471.41,40.481L477.19,42.693L482.97,47.496L488.75,42.175L494.53,44.244L500.31,39.037L506.09,38.48L511.87,48.144L517.66,41.677L523.44,41.76L529.22,40.394L535,44.435L540.78,40.88L546.56,41.246L552.34,42.917L558.12,45.341L563.91,48.463L569.69,52.738L575.47,41.243L581.25,43.634L587.03,48.352L592.81,43.137L598.59,55.293L604.38,40.673L610.16,51.133L615.94,43.913L621.72,46.373L627.5,40.785L633.28,46.414L639.06,55.528L644.84,41.173L650.62,42.127L656.41,54.288L662.19,60.992L667.97,50.845L673.75,42.882L679.53,41.219L685.31,40.762L691.09,47.471L696.88,40.852L702.66,58.021L708.44,46.773L714.22,42.822L720,40.288L720,38.48Z" style="fill:#F15A60" />
<path d="M26.25,53.279L32.031,46.69L37.812,43.114L43.594,39.274L49.375,42.908L55.156,38.984L60.938,38.941L66.719,46.387L72.5,55.5L78.281,44.407L84.062,43.656L89.844,43.889L95.625,39.58L101.41,40.951L107.19,39.541L112.97,42.314L118.75,45.308L124.53,44.776L130.31,42.89L136.09,43.435L141.88,44.543L147.66,42.849L153.44,39.78L159.22,50.046L165,47.703L170.78,50.687L176.56,49.526L182.34,41.727L188.12,41.263L193.91,46.199L199.69,47.785L205.47,40.905L211.25,39.812L217.03,45.86L222.81,56.993L228.59,44.285L234.38,52.087L240.16,39.791L245.94,38.808L251.72,38.673L257.5,40.495L263.28,44.907L269.06,48.938L274.84,43.722L280.62,46.964L286.41,45.325L292.19,39.487L297.97,41.125L303.75,38.681L309.53,49.41L315.31,40.942L321.09,46.971L326.88,41.249L332.66,44.695L338.44,42.272L344.22,56.184L350,38.998L355.78,44.649L361.56,44.836L367.34,42.372L373.12,42.748L378.91,47.397L384.69,42.872L390.47,41.999L396.25,40.132L402.03,61.262L407.81,40.331L413.59,45.354L419.38,41.749L425.16,44.475L430.94,46.154L436.72,46.971L442.5,43.309L448.28,41.854L454.06,39.484L459.84,39.963L465.62,42.522L471.41,40.481L477.19,42.693L482.97,47.496L488.75,42.175L494.53,44.244L500.31,39.037L506.09,38.48L511.87,48.144L517.66,41.677L523.44,41.76L529.22,40.394L535,44.435L540.78,40.88L546.56,41.246L552.34,42.917L558.12,45.341L563.91,48.463L569.69,52.738L575.47,41.243L581.25,43.634L587.03,48.352L592.81,43.137L598.59,55.293L604.38,40.673L610.16,51.133L615.94,43.913L621.72,46.373L627.5,40.785L633.28,46.414L639.06,55.528L644.84,41.173L650.62,42.127L656.41,54.288L662.19,60.992L667.97,50.845L673.75,42.882L679.53,41.219L685.31,40.762L691.09,47.471L696.88,40.852L702.66,58.021L708.44,46.773L714.22,42.822L720,40.288" style="fill:none;stroke:#-8000000000000000-8000000000000000-8000000000000000;stroke-opacity:0" />
<path d="M700,188.81L700,194.7L720,194.7L720,188.81Z" style="fill:#F15A60" />
<path d="M700,194.7L720,194.7" style="fill:none;stroke:#-8000000000000000-8000000000000000-8000000000000000;stroke-opacity:0" />
<text x="505.37" y="-189.03" transform="scale(1, -1)"
	style="font-family:Times;font-weight:normal;font-style:normal;font-size:12px">{instance=&#34;cirno1.sr.ht:80&#34;,job=&#34;host&#34;}</text>
<path d="M700,177.03L700,182.92L720,182.92L720,177.03Z" style="fill:#7AC36A" />
<path d="M700,182.92L720,182.92" style="fill:none;stroke:#000000" />
<text x="505.37" y="-177.25" transform="scale(1, -1)"
	style="font-family:Times;font-weight:normal;font-style:normal;font-size:12px">{instance=&#34;cirno2.sr.ht:80&#34;,job=&#34;host&#34;}</text>
</g>
</svg>
